<svg width="900" height="620" viewBox="0 0 900 620" fill="none" xmlns="http://www.w3.org/2000/svg" role="img" aria-label="Premium interior service illustration">
  <defs>
    <linearGradient id="g" x1="0" y1="0" x2="1" y2="1"><stop stop-color="#FFF8EF"/><stop offset="1" stop-color="#E9D3B8"/></linearGradient>
    <filter id="s" x="-20%" y="-20%" width="140%" height="140%"><feDropShadow dx="0" dy="24" stdDeviation="28" flood-color="#4A2F1D" flood-opacity="0.18"/></filter>
  </defs>
  <rect width="900" height="620" rx="40" fill="url(#g)"/>
  <g filter="url(#s)">
    <path d="M250 125h430v310H250z" fill="#F6E8D7"/>
    <path d="M250 125l80-60h430l-80 60H250z" fill="#FFF5EA"/>
    <path d="M680 125l80-60v310l-80 60V125z" fill="#D5B996"/>
    <rect x="315" y="195" width="150" height="120" rx="10" fill="#A77545"/>
    <rect x="480" y="195" width="130" height="120" rx="10" fill="#E9D3B8"/>
    <rect x="330" y="330" width="250" height="70" rx="14" fill="#C67821" opacity=".75"/>
    <rect x="520" y="340" width="130" height="60" rx="30" fill="#8A6342"/>
    <rect x="555" y="270" width="90" height="20" rx="10" fill="#47301F" opacity=".7"/>
    <circle cx="405" cy="365" r="12" fill="#FFF8EF"/>
    <circle cx="480" cy="365" r="12" fill="#FFF8EF"/>
    <path d="M610 165v70" stroke="#7B5533" stroke-width="4"/><circle cx="610" cy="245" r="16" fill="#E1942C" opacity=".8"/>
    <path d="M640 150v90" stroke="#7B5533" stroke-width="4"/><circle cx="640" cy="252" r="16" fill="#E1942C" opacity=".8"/>
    <rect x="115" y="390" width="250" height="70" rx="16" fill="#B98A5B"/>
    <circle cx="235" cy="340" r="34" fill="#3B2A20"/>
    <path d="M185 460c28-62 82-62 122 0" fill="#2B211B"/>
    <rect x="140" y="475" width="220" height="28" rx="14" fill="#6F4A2C"/>
  </g>
</svg>
