<svg width="1000" height="620" viewBox="0 0 1000 620" fill="none" xmlns="http://www.w3.org/2000/svg" role="img" aria-label="QuickFurno vendor dashboard preview">
  <rect width="1000" height="620" rx="36" fill="#111111"/>
  <rect x="35" y="35" width="930" height="550" rx="28" fill="#FFF8EF"/>
  <rect x="35" y="35" width="190" height="550" rx="28" fill="#F2E3D2"/>
  <rect x="60" y="80" width="130" height="36" rx="12" fill="#C67821"/>
  <text x="80" y="104" font-family="Inter, Arial" font-size="16" fill="white" font-weight="700">Dashboard</text>
  <g fill="#6F5B4B" font-family="Inter, Arial" font-size="16"><text x="70" y="155">Leads</text><text x="70" y="195">Projects</text><text x="70" y="235">Messages</text><text x="70" y="275">Profile</text><text x="70" y="315">Payments</text></g>
  <text x="260" y="95" font-family="Georgia,serif" font-size="30" fill="#111" font-weight="700">Vendor Dashboard</text>
  <g font-family="Inter, Arial" font-weight="700">
    <rect x="260" y="130" width="145" height="95" rx="16" fill="white" stroke="#E8D7C4"/><text x="280" y="165" font-size="14" fill="#6F5B4B">Active Leads</text><text x="280" y="205" font-size="36" fill="#111">12</text>
    <rect x="425" y="130" width="145" height="95" rx="16" fill="white" stroke="#E8D7C4"/><text x="445" y="165" font-size="14" fill="#6F5B4B">New Today</text><text x="445" y="205" font-size="36" fill="#111">5</text>
    <rect x="590" y="130" width="145" height="95" rx="16" fill="white" stroke="#E8D7C4"/><text x="610" y="165" font-size="14" fill="#6F5B4B">Plan</text><text x="610" y="205" font-size="22" fill="#C67821">Premium</text>
    <rect x="755" y="130" width="145" height="95" rx="16" fill="white" stroke="#E8D7C4"/><text x="775" y="165" font-size="14" fill="#6F5B4B">Response</text><text x="775" y="205" font-size="36" fill="#111">92%</text>
  </g>
  <rect x="260" y="255" width="410" height="260" rx="22" fill="white" stroke="#E8D7C4"/>
  <text x="290" y="300" font-family="Inter, Arial" font-size="22" font-weight="700" fill="#111">Recent Leads</text>
  <g font-family="Inter, Arial" font-size="16">
    <rect x="290" y="325" width="340" height="52" rx="12" fill="#FFF8EF"/><text x="310" y="357" fill="#111" font-weight="700">Premium Interior Design</text><text x="520" y="357" fill="#C67821">New</text>
    <rect x="290" y="390" width="340" height="52" rx="12" fill="#FFF8EF"/><text x="310" y="422" fill="#111" font-weight="700">Modular Kitchen</text><text x="520" y="422" fill="#C67821">New</text>
    <rect x="290" y="455" width="340" height="52" rx="12" fill="#FFF8EF"/><text x="310" y="487" fill="#111" font-weight="700">Civil Work</text><text x="500" y="487" fill="#19A55A">Contacted</text>
  </g>
  <rect x="700" y="255" width="200" height="260" rx="22" fill="white" stroke="#E8D7C4"/>
  <text x="725" y="300" font-family="Inter, Arial" font-size="20" font-weight="700" fill="#111">Lead Overview</text>
  <polyline points="725,455 755,420 785,440 815,370 845,390 875,330" fill="none" stroke="#C67821" stroke-width="6" stroke-linecap="round" stroke-linejoin="round"/>
</svg>
